<svg width="430" height="119" viewBox="0 0 430 119" fill="none" xmlns="http://www.w3.org/2000/svg">
<rect x="-1.55198" y="1" width="431.984" height="109" fill="#F9C80E"/>
<path fill-rule="evenodd" clip-rule="evenodd" d="M410.044 49C412.101 49 413.767 50.6592 413.767 52.7059C413.767 54.6335 412.289 56.2174 410.399 56.3952V60.2941C410.399 60.489 410.24 60.6471 410.044 60.6471C409.849 60.6471 409.69 60.489 409.69 60.2941V56.3952C407.8 56.2174 406.321 54.6335 406.321 52.7059C406.321 50.6592 407.988 49 410.044 49Z" fill="#5D737E" fill-opacity="0.69"/>
<path d="M411.285 52.7059C411.285 52.0236 410.73 51.4706 410.044 51.4706C409.359 51.4706 408.803 52.0236 408.803 52.7059C408.803 53.3881 409.359 53.9412 410.044 53.9412C410.73 53.9412 411.285 53.3881 411.285 52.7059Z" fill="white"/>
<path opacity="0.3" d="M410.044 61C410.534 61 410.931 60.8025 410.931 60.5588C410.931 60.3152 410.534 60.1176 410.044 60.1176C409.555 60.1176 409.158 60.3152 409.158 60.5588C409.158 60.8025 409.555 61 410.044 61Z" fill="black"/>
<g filter="url(#filter0_d_27_298)">
<path d="M366.137 1L372.56 42L391.755 42L433.446 84.5" stroke="#5D737E" stroke-dasharray="2 2"/>
</g>
<g filter="url(#filter1_d_27_298)">
<path d="M40.1395 109.997L67.7652 81.5029L29.5897 79.0013L17.0313 59.5008L40.1363 34.5017L17.0302 34.5007L-1.05403 6.49998" stroke="#5D737E" stroke-dasharray="2 2"/>
</g>
<path fill-rule="evenodd" clip-rule="evenodd" d="M51.3971 68C53.4532 68 55.1201 69.6592 55.1201 71.7059C55.1201 73.6335 53.6415 75.2174 51.7517 75.3952V79.2941C51.7517 79.489 51.5929 79.6471 51.3971 79.6471C51.2013 79.6471 51.0425 79.489 51.0425 79.2941V75.3952C49.1527 75.2174 47.6741 73.6335 47.6741 71.7059C47.6741 69.6592 49.341 68 51.3971 68Z" fill="#5D737E" fill-opacity="0.69"/>
<path d="M52.6381 71.7059C52.6381 71.0236 52.0825 70.4706 51.3971 70.4706C50.7117 70.4706 50.1561 71.0236 50.1561 71.7059C50.1561 72.3881 50.7117 72.9412 51.3971 72.9412C52.0825 72.9412 52.6381 72.3881 52.6381 71.7059Z" fill="white"/>
<path opacity="0.3" d="M51.3971 80C51.8867 80 52.2835 79.8025 52.2835 79.5588C52.2835 79.3152 51.8867 79.1176 51.3971 79.1176C50.9075 79.1176 50.5107 79.3152 50.5107 79.5588C50.5107 79.8025 50.9075 80 51.3971 80Z" fill="black"/>
<path fill-rule="evenodd" clip-rule="evenodd" d="M6.18947 5C8.24561 5 9.91245 6.65918 9.91245 8.70588C9.91245 10.6335 8.43387 12.2174 6.54404 12.3952V16.2941C6.54404 16.489 6.38529 16.6471 6.18947 16.6471C5.99364 16.6471 5.8349 16.489 5.8349 16.2941V12.3952C3.94506 12.2174 2.46648 10.6335 2.46648 8.70588C2.46648 6.65918 4.13332 5 6.18947 5Z" fill="#5D737E" fill-opacity="0.69"/>
<path d="M7.43046 8.70588C7.43046 8.02364 6.87485 7.47058 6.18947 7.47058C5.50408 7.47058 4.94847 8.02364 4.94847 8.70588C4.94847 9.38811 5.50408 9.94117 6.18947 9.94117C6.87485 9.94117 7.43046 9.38811 7.43046 8.70588Z" fill="white"/>
<path opacity="0.3" d="M6.18946 17C6.67902 17 7.07589 16.8025 7.07589 16.5588C7.07589 16.3152 6.67902 16.1176 6.18946 16.1176C5.69991 16.1176 5.30304 16.3152 5.30304 16.5588C5.30304 16.8025 5.69991 17 6.18946 17Z" fill="black"/>
<defs>
<filter id="filter0_d_27_298" x="361.642" y="0.92363" width="76.1625" height="91.9248" filterUnits="userSpaceOnUse" color-interpolation-filters="sRGB">
<feFlood flood-opacity="0" result="BackgroundImageFix"/>
<feColorMatrix in="SourceAlpha" type="matrix" values="0 0 0 0 0 0 0 0 0 0 0 0 0 0 0 0 0 0 127 0" result="hardAlpha"/>
<feOffset dy="4"/>
<feGaussianBlur stdDeviation="2"/>
<feComposite in2="hardAlpha" operator="out"/>
<feColorMatrix type="matrix" values="0 0 0 0 0 0 0 0 0 0 0 0 0 0 0 0 0 0 0.25 0"/>
<feBlend mode="normal" in2="BackgroundImageFix" result="effect1_dropShadow_27_298"/>
<feBlend mode="normal" in="SourceGraphic" in2="effect1_dropShadow_27_298" result="shape"/>
</filter>
<filter id="filter1_d_27_298" x="-5.47405" y="6.22871" width="78.3508" height="112.117" filterUnits="userSpaceOnUse" color-interpolation-filters="sRGB">
<feFlood flood-opacity="0" result="BackgroundImageFix"/>
<feColorMatrix in="SourceAlpha" type="matrix" values="0 0 0 0 0 0 0 0 0 0 0 0 0 0 0 0 0 0 127 0" result="hardAlpha"/>
<feOffset dy="4"/>
<feGaussianBlur stdDeviation="2"/>
<feComposite in2="hardAlpha" operator="out"/>
<feColorMatrix type="matrix" values="0 0 0 0 0 0 0 0 0 0 0 0 0 0 0 0 0 0 0.25 0"/>
<feBlend mode="normal" in2="BackgroundImageFix" result="effect1_dropShadow_27_298"/>
<feBlend mode="normal" in="SourceGraphic" in2="effect1_dropShadow_27_298" result="shape"/>
</filter>
</defs>
</svg>
