<svg width="73" height="18" viewBox="0 0 73 18" fill="none" xmlns="http://www.w3.org/2000/svg">
<path d="M23.0213 17.4907V1.55068H31.5663V4.74324H26.3313V7.98142H29.3596V11.1968H26.3313V17.4907H23.0213Z" fill="#36F9A8"/>
<path d="M33.1626 17.5135V1.55068H36.4726V14.3209H41.9893V17.5135H33.1626Z" fill="#36F9A8"/>
<path d="M43.2335 13.0667V5.56419C43.2335 4.75845 43.5856 3.9375 44.2898 3.10135C45.2289 2.00676 46.4183 1.45186 47.8581 1.43666V4.65203C47.2164 4.66723 46.7939 5.01689 46.5904 5.70101C46.5591 5.80743 46.5435 5.88345 46.5435 5.92905V13.0667C46.5435 13.69 46.8956 14.1157 47.5999 14.3438C47.7094 14.3742 47.7877 14.3894 47.8346 14.3894V17.6275C46.9425 17.6275 46.0505 17.3159 45.1584 16.6926C43.8908 15.7804 43.2491 14.5718 43.2335 13.0667ZM49.1257 17.6275V14.3894C49.3761 14.3894 49.6578 14.2601 49.9708 14.0017C50.2682 13.7432 50.4247 13.4316 50.4403 13.0667V5.92905C50.4403 5.65541 50.3073 5.36655 50.0413 5.0625C49.7909 4.80405 49.4857 4.66723 49.1257 4.65203V1.43666C50.7064 1.43666 51.9741 2.09797 52.9287 3.42061C53.4765 4.18074 53.7503 4.89527 53.7503 5.56419V13.0667C53.7503 14.7542 52.9757 16.0465 51.4263 16.9434C50.6125 17.3995 49.8456 17.6275 49.1257 17.6275Z" fill="#36F9A8"/>
<path d="M54.8772 1.55068H58.2576L61.9901 13.9105L60.746 17.5135H59.6426L54.8772 1.55068ZM60.9103 5.79223L62.2014 1.55068H65.5818L69.2909 13.9105L68.0702 17.5135H66.9669L63.8682 7.11486C63.7117 7.60135 63.4847 8.33868 63.1874 9.32686C62.9683 10.0262 62.8039 10.5507 62.6944 10.9003H62.4596L60.9103 5.79223ZM68.3284 5.79223L69.6196 1.55068H73L70.1126 10.9003H69.8778L68.3284 5.79223Z" fill="#36F9A8"/>
<path d="M9.26487 18C14.3817 18 18.5297 13.9706 18.5297 9C18.5297 4.02944 14.3817 0 9.26487 0C4.14802 0 0 4.02944 0 9C0 13.9706 4.14802 18 9.26487 18Z" fill="#87FFCD" fill-opacity="0.6"/>
<path d="M6.73309 13.2241C6.10214 13.5525 5.36883 12.9826 5.60386 12.3466L8.52015 4.45445C8.76376 3.79519 9.76603 3.79519 10.0096 4.45446L12.9259 12.3466C13.1609 12.9826 12.4276 13.5525 11.7967 13.2241L9.84164 12.2066C9.48328 12.0201 9.04652 12.0201 8.68816 12.2066L6.73309 13.2241Z" fill="black"/>
</svg>
