<svg width="15" height="19" viewBox="0 0 15 19" fill="none" xmlns="http://www.w3.org/2000/svg">
<path fill-rule="evenodd" clip-rule="evenodd" d="M7.70053 0C11.7071 0 14.9551 3.24797 14.9551 7.25455C14.9551 7.7436 14.9067 8.22135 14.8144 8.68327C14.1741 13.5084 7.73865 19 7.73865 19C7.73865 19 2.262 14.3266 0.910468 9.81423C0.61025 9.01825 0.445984 8.15558 0.445984 7.25455C0.445984 3.24797 3.69395 0 7.70053 0Z" fill="#F86624"/>
<path d="M10.4642 7.25454C10.4642 5.72823 9.22684 4.49091 7.70053 4.49091C6.17421 4.49091 4.93689 5.72823 4.93689 7.25454C4.93689 8.78086 6.17421 10.0182 7.70053 10.0182C9.22684 10.0182 10.4642 8.78086 10.4642 7.25454Z" fill="white"/>
</svg>
