<svg width="24" height="24" viewBox="0 0 24 24" fill="none" xmlns="http://www.w3.org/2000/svg">
<circle cx="12" cy="12" r="11.5" fill="white" stroke="black"/>
<path d="M12 12C13.933 12 15.5 10.433 15.5 8.5C15.5 6.567 13.933 5 12 5C10.067 5 8.5 6.567 8.5 8.5C8.5 10.433 10.067 12 12 12ZM14.3333 8.5C14.3333 9.78866 13.2887 10.8333 12 10.8333C10.7113 10.8333 9.66667 9.78866 9.66667 8.5C9.66667 7.21134 10.7113 6.16667 12 6.16667C13.2887 6.16667 14.3333 7.21134 14.3333 8.5Z" fill="black"/>
<path d="M19 17.8333C19 19 17.8333 19 17.8333 19H6.16667C6.16667 19 5 19 5 17.8333C5 16.6667 6.16667 13.1667 12 13.1667C17.8333 13.1667 19 16.6667 19 17.8333ZM17.8333 17.8293C17.8316 17.5414 17.6539 16.6789 16.8625 15.8875C16.1016 15.1265 14.6706 14.3333 12 14.3333C9.32936 14.3333 7.89841 15.1265 7.13745 15.8875C6.34605 16.6789 6.16833 17.5414 6.16667 17.8293H17.8333Z" fill="black"/>
</svg>
